<?xml version="1.0" standalone="no"?>
<svg viewBox="0 0 200 200" xmlns="http://www.w3.org/2000/svg">
  <path fill="#e6e6ff" d="M35.1,-52.5C47,-46.9,59.3,-39.8,64.7,-29.2C70.1,-18.6,68.6,-4.5,65,8.2C61.4,20.9,55.7,32.1,49.1,46C42.5,59.9,34.9,76.4,22.2,83.9C9.5,91.4,-8.2,89.9,-21,81.6C-33.8,73.2,-41.6,58,-49.4,45C-57.3,32,-65.1,21.3,-71.9,7.3C-78.7,-6.7,-84.5,-24,-77.5,-33.9C-70.6,-43.8,-51,-46.4,-36,-50.5C-21,-54.7,-10.5,-60.4,0.5,-61.2C11.6,-62.1,23.2,-58.1,35.1,-52.5Z" transform="translate(100 100)" />
</svg>
