<svg xmlns="http://www.w3.org/2000/svg" width="48.596" height="44.394" viewBox="0 0 48.596 44.394">
  <g id="Development" transform="translate(-862.856 -948.503)">
    <path id="Path_2616" data-name="Path 2616" d="M225.685,168.179a20.788,20.788,0,0,1,11.645,4.757c3.494,2.811,6.808,6.317,7.959,11.013,1.128,4.606-.544,9.3-1.874,13.832-1.318,4.494-2.308,9.579-5.763,12.213-3.415,2.6-7.883,1.8-11.967,1.305a18.95,18.95,0,0,1-10.238-4.02,21.48,21.48,0,0,1-6.306-9.938,27.689,27.689,0,0,1-1-12.63c.723-4.891,1.5-10.26,4.853-13.42,3.42-3.222,8.264-3.413,12.693-3.114" transform="matrix(1, -0.017, 0.017, 1, 652.128, 784.738)" fill="#8eefda"/>
    <path id="Icon_material-code" data-name="Icon material-code" d="M20.61,31.609,10.8,21.8l9.811-9.811L15.8,9,3,21.8l12.8,12.8Zm8.284,0L38.7,21.8l-9.811-9.811L32.86,9l12.8,12.8-12.8,12.8-3.967-2.986Z" transform="translate(865.794 958.086)" fill="#2922e9"/>
  </g>
</svg>